<svg width="1451" height="4144" viewBox="0 0 1451 4144" fill="none" xmlns="http://www.w3.org/2000/svg">
<path fill-rule="evenodd" clip-rule="evenodd" d="M1238.71 906.632C1278.56 906.822 1306.37 930.992 1329.95 952.97C1351.97 973.501 1369.41 997.046 1362.55 1022.08C1355.38 1048.24 1330.7 1072.19 1294.57 1082.08C1260.66 1091.38 1225.2 1079.52 1192.25 1068.73C1159.18 1057.89 1122.17 1046.64 1112.54 1022.44C1102.59 997.415 1123.2 972.885 1145.86 952.09C1169.78 930.127 1198.66 906.44 1238.71 906.632Z" fill="#FCD1D1"/>
<path fill-rule="evenodd" clip-rule="evenodd" d="M442.515 582.926C439.788 612.611 407.921 628.926 386.495 650.871C364.871 673.019 350.148 704.289 318.708 709.734C284.4 715.676 246.943 703.365 223.446 679.11C201.2 656.145 203.469 622.398 204.012 591.333C204.514 562.608 204.949 531.606 226.384 511.142C247.42 491.058 280.061 492.145 309.961 490.181C341.413 488.116 375.084 482.012 400.382 499.713C427.625 518.774 445.438 551.106 442.515 582.926Z" fill="#C6EBC9"/>
<path fill-rule="evenodd" clip-rule="evenodd" d="M1113.89 2012.72C1139.63 2013.1 1161.88 2025.65 1184.77 2036.72C1212.32 2050.05 1245.52 2058.14 1260.48 2083.64C1276.49 2110.95 1276.66 2145.32 1265.74 2174.76C1254.93 2203.86 1228.87 2224.69 1201.71 2241.97C1175.33 2258.76 1145.19 2276.89 1113.89 2271.37C1083.68 2266.04 1070.57 2233.4 1047.15 2214.71C1026.27 2198.05 996.226 2191.12 984.304 2167.96C971.665 2143.39 971.185 2113.45 982.017 2088.14C992.503 2063.63 1017.35 2048.34 1041.36 2034.61C1063.6 2021.89 1087.86 2012.34 1113.89 2012.72Z" fill="#C6EBC9"/>
<path fill-rule="evenodd" clip-rule="evenodd" d="M1096.71 3607.6C1136.02 3608.18 1170.01 3627.37 1204.96 3644.31C1247.04 3664.69 1297.73 3677.07 1320.57 3716.07C1345.03 3757.83 1345.3 3810.39 1328.61 3855.42C1312.11 3899.93 1272.31 3931.79 1230.83 3958.22C1190.55 3983.89 1144.52 4011.63 1096.71 4003.18C1050.58 3995.03 1030.56 3945.11 994.785 3916.52C962.906 3891.04 917.023 3880.45 898.817 3845.02C879.514 3807.45 878.782 3761.66 895.324 3722.94C911.338 3685.46 949.287 3662.08 985.956 3641.07C1019.91 3621.63 1056.96 3607.01 1096.71 3607.6Z" fill="#C6EBC9"/>
<path fill-rule="evenodd" clip-rule="evenodd" d="M432.827 2854.64C472.141 2855.22 506.127 2874.41 541.083 2891.35C583.158 2911.73 633.852 2924.11 656.694 2963.11C681.154 3004.87 681.415 3057.43 664.728 3102.46C648.23 3146.97 608.431 3178.83 566.948 3205.26C526.665 3230.93 480.641 3258.67 432.827 3250.22C386.695 3242.07 366.68 3192.15 330.905 3163.56C299.026 3138.08 253.142 3127.49 234.936 3092.06C215.634 3054.49 214.902 3008.7 231.444 2969.98C247.457 2932.5 285.406 2909.12 322.075 2888.11C356.028 2868.67 393.084 2854.05 432.827 2854.64Z" fill="#FCD1D1"/>
<path fill-rule="evenodd" clip-rule="evenodd" d="M351.018 1402.38C403.41 1403.14 448.7 1428.19 495.285 1450.3C551.355 1476.91 618.912 1493.07 649.352 1543.98C681.948 1598.5 682.296 1667.11 660.058 1725.89C638.073 1784 585.034 1825.59 529.753 1860.1C476.07 1893.61 414.737 1929.82 351.018 1918.79C289.542 1908.15 262.868 1842.98 215.193 1805.66C172.71 1772.4 111.564 1758.57 87.3022 1712.32C61.5792 1663.28 60.6034 1603.5 82.648 1552.96C103.988 1504.03 154.56 1473.5 203.427 1446.08C248.674 1420.7 298.056 1401.62 351.018 1402.38Z" fill="#AEE1E1"/>
<path fill-rule="evenodd" clip-rule="evenodd" d="M1202.83 156.775C1279.23 157.278 1332.55 221.042 1377.76 279.025C1419.99 333.191 1453.41 395.304 1440.26 461.338C1426.52 530.375 1379.2 593.54 1309.93 619.655C1244.91 644.164 1176.92 612.899 1113.76 584.419C1050.35 555.829 979.387 526.15 960.928 462.296C941.845 396.28 981.369 331.563 1024.8 276.704C1070.68 218.76 1126.05 156.27 1202.83 156.775Z" fill="#AEE1E1"/>
<path fill-rule="evenodd" clip-rule="evenodd" d="M347.827 19.6185C424.235 20.121 477.555 83.8857 522.759 141.869C564.986 196.034 598.413 258.148 585.263 324.181C571.516 393.218 524.203 456.384 454.928 482.498C389.909 507.008 321.921 475.742 258.755 447.262C195.349 418.673 124.387 388.993 105.928 325.14C86.8448 259.123 126.369 194.407 169.804 139.548C215.681 81.604 271.053 19.1136 347.827 19.6185Z" fill="#FCD1D1"/>
<path fill-rule="evenodd" clip-rule="evenodd" d="M660.827 2785C737.235 2785.51 790.555 2849.27 835.759 2907.25C877.986 2961.42 911.413 3023.53 898.263 3089.57C884.516 3158.6 837.203 3221.77 767.928 3247.88C702.909 3272.39 634.921 3241.13 571.755 3212.65C508.349 3184.06 437.387 3154.38 418.928 3090.52C399.845 3024.51 439.369 2959.79 482.804 2904.93C528.681 2846.99 584.053 2784.5 660.827 2785Z" fill="#FCD1D1"/>
<g filter="url(#filter0_b)">
<rect y="0.921387" width="1450.99" height="4143.08" fill="#E5E6E7" fill-opacity="0.11"/>
</g>
<defs>
<filter id="filter0_b" x="-300" y="-299.079" width="2050.99" height="4743.08" filterUnits="userSpaceOnUse" color-interpolation-filters="sRGB">
<feFlood flood-opacity="0" result="BackgroundImageFix"/>
<feGaussianBlur in="BackgroundImage" stdDeviation="150"/>
<feComposite in2="SourceAlpha" operator="in" result="effect1_backgroundBlur"/>
<feBlend mode="normal" in="SourceGraphic" in2="effect1_backgroundBlur" result="shape"/>
</filter>
</defs>
</svg>
